<svg xmlns="http://www.w3.org/2000/svg" viewBox="0 0 96 96" role="img" aria-label="BusNET">
  <rect width="96" height="96" rx="24" fill="#00D26A"></rect>
  <g fill="#062015" transform="translate(6 6) scale(0.875)">
    <path fill-rule="evenodd" d="&#xA;      M34 20 h28 a13 13 0 0 1 13 13 v34 a13 13 0 0 1 -13 13 h-28 a13 13 0 0 1 -13 -13 v-34 a13 13 0 0 1 13 -13 Z&#xA;      M32 33 a5 5 0 0 1 5 -5 h22 a5 5 0 0 1 5 5 v13 a4 4 0 0 1 -4 4 h-24 a4 4 0 0 1 -4 -4 Z&#xA;      M35 60 a4 4 0 1 0 0.01 0 Z&#xA;      M57 60 a4 4 0 1 0 0.01 0 Z" clip-rule="evenodd"></path>
    <rect x="29" y="76" width="10" height="7" rx="3"></rect>
    <rect x="57" y="76" width="10" height="7" rx="3"></rect>
    <path d="M66 22 a10 10 0 0 1 9.5 6.9" stroke="#062015" stroke-width="4.5" stroke-linecap="round" fill="none"></path>
    <path d="M67 12 a20 20 0 0 1 17.5 12.6" stroke="#062015" stroke-width="4.5" stroke-linecap="round" fill="none"></path>
  </g>
</svg>